<svg xmlns:xlink="http://www.w3.org/1999/xlink" xmlns="http://www.w3.org/2000/svg" fill="none" height="63" width="91" viewBox="389.1891891891892 233.99999999999997 787.0270270270271 546"><defs><filter id="i0"><feColorMatrix values="0 0 0 0 1 0 0 0 0 1 0 0 0 0 1 0 0 0 1 0" type="matrix"/></filter><mask height="20000" width="20000" y="-10000" x="-10000" maskContentUnits="userSpaceOnUse" maskUnits="userSpaceOnUse" style="mask-type: alpha" mask-type="alpha" id="i1"><g filter="url(#i0)" transform="matrix(1.151,0,0,1.151,703.659,572.634)" style="mix-blend-mode: hard-light"><g id="i2" transform="matrix(1,0,0,1,63.278,83.408)"><path fill="#ffffff" fill-rule="evenodd" d="M8.293,80.437C8.293,80.437,8.293,41.996,8.293,41.996C8.293,41.996,-63.028,41.996,-63.028,41.996C-63.028,41.996,-63.028,17.584,-63.028,17.584C-63.028,17.584,-2.248,-80.437,-2.248,-80.437C-2.248,-80.437,43.818,-80.437,43.818,-80.437C43.818,-80.437,43.818,13.847,43.818,13.847C43.818,13.847,63.028,13.847,63.028,13.847C63.028,13.847,63.028,41.996,63.028,41.996C63.028,41.996,43.818,41.996,43.818,41.996C43.818,41.996,43.818,80.437,43.818,80.437C43.818,80.437,8.293,80.437,8.293,80.437ZM8.293,13.847C8.293,13.847,8.293,-21.723,8.293,-21.723C8.293,-31.383,8.807,-41.345,9.364,-51.708C9.364,-51.708,8.462,-51.747,8.462,-51.747C3.316,-41.249,-1.017,-31.95,-6.464,-21.888C-6.464,-21.888,-27.903,13.353,-27.903,13.353C-27.903,13.353,-28.05,13.847,-28.05,13.847C-28.05,13.847,8.293,13.847,8.293,13.847Z"/></g><g id="i3" transform="matrix(1,0,0,1,200.54,83.409)"><path fill="#ffffff" fill-rule="evenodd" d="M60.633,-0.666C60.633,48.9,40.516,83.159,-0.491,83.159C-42.105,83.159,-60.477,45.859,-60.633,0.351C-60.633,-46.386,-41.019,-83.159,0.587,-83.159C43.599,-83.159,60.633,-44.776,60.633,-0.666ZM-22.972,0.196C-23.07,37.224,-14.119,54.743,0.275,54.743C14.93,54.743,22.971,36.363,22.971,-0.197C22.971,-35.857,15.184,-54.597,0.195,-54.597C-13.648,-54.597,-23.021,-37.245,-22.972,0.196Z"/></g><g id="i4" transform="matrix(1,0,0,1,338.002,83.408)"><path fill="#ffffff" fill-rule="evenodd" d="M8.293,80.437C8.293,80.437,8.293,41.996,8.293,41.996C8.293,41.996,-63.028,41.996,-63.028,41.996C-63.028,41.996,-63.028,17.584,-63.028,17.584C-63.028,17.584,-2.248,-80.437,-2.248,-80.437C-2.248,-80.437,43.818,-80.437,43.818,-80.437C43.818,-80.437,43.818,13.847,43.818,13.847C43.818,13.847,63.028,13.847,63.028,13.847C63.028,13.847,63.028,41.996,63.028,41.996C63.028,41.996,43.818,41.996,43.818,41.996C43.818,41.996,43.818,80.437,43.818,80.437C43.818,80.437,8.293,80.437,8.293,80.437ZM8.293,13.847C8.293,13.847,8.293,-21.723,8.293,-21.723C8.293,-31.383,8.807,-41.345,9.364,-51.708C9.364,-51.708,8.462,-51.747,8.462,-51.747C3.316,-41.249,-1.017,-31.95,-6.464,-21.888C-6.464,-21.888,-27.903,13.353,-27.903,13.353C-27.903,13.353,-28.05,13.847,-28.05,13.847C-28.05,13.847,8.293,13.847,8.293,13.847Z"/></g></g></mask></defs><g style="isolation: isolate"><g transform="matrix(1.151,0,0,1.151,455.387,681.116)" id="i5"><g id="i4" transform="matrix(1,0,0,1,86.925,40.84)"><path stroke-miterlimit="10" stroke-width="5" stroke="#7ccf00" d="M17.745,-28.34C17.745,-28.34,-17.746,-28.34,-17.746,-28.34C-49.049,-28.34,-74.426,-2.964,-74.426,28.34C-74.426,28.34,74.426,28.34,74.426,28.34C74.426,-2.964,49.049,-28.34,17.745,-28.34Z"/></g></g><g transform="matrix(1.151,0,0,1.151,552.399,369.02)" id="i6"><g id="i4"><path stroke-miterlimit="10" stroke-width="5" stroke="#7ccf00" d="M2.62,282.82C2.62,282.82,2.5,2.5,2.5,2.5"/></g></g><g transform="matrix(1.151,0,0,1.151,537.687,446.432)" id="i5"><g id="i4" transform="matrix(1,0,0,1,15.952,15.952)"><path fill="#7ccf00" d="M15.702,0C15.702,8.672,8.672,15.702,0,15.702C-8.672,15.702,-15.702,8.672,-15.702,0C-15.702,-8.672,-8.672,-15.702,0,-15.702C8.672,-15.702,15.702,-8.672,15.702,0Z"/></g></g><g id="i6"><g transform="translate(556.97,465.702)"><g transform="rotate(0)"><animateTransform repeatCount="indefinite" type="rotate" attributeName="transform" dur="2.125s" begin="0s" calcMode="spline" values="0; -5; 0; 0" keyTimes="0; 0.470588; 0.941176; 1" keySplines="0.333 0 0.496 1; 0.5 0 0.667 1; 0 0 1 1" fill="freeze"/><g transform="scale(1.151,1.151) translate(-97.592,-157.757)"><g id="i4" transform="matrix(1,0,0,1,125.553,129.01)"><path stroke-miterlimit="10" stroke-width="5" stroke="#7ccf00" d="M123.053,-126.51C123.053,-126.51,-123.053,126.51,-123.053,126.51"/></g></g></g></g></g><g transform="matrix(1.151,0,0,1.151,408.927,759.102)" id="i7"><g id="i4"><path stroke-miterlimit="10" stroke-width="5" stroke="#7ccf00" d="M2.5,2.5C2.5,2.5,656.628,2.5,656.628,2.5"/></g></g><g transform="matrix(1.151,0,0,1.151,690.659,572.634)" id="i8"><g id="i2" transform="matrix(1,0,0,1,63.278,83.408)"><path fill="#1d1c26" fill-rule="evenodd" d="M8.293,80.437C8.293,80.437,8.293,41.996,8.293,41.996C8.293,41.996,-63.028,41.996,-63.028,41.996C-63.028,41.996,-63.028,17.584,-63.028,17.584C-63.028,17.584,-2.248,-80.437,-2.248,-80.437C-2.248,-80.437,43.818,-80.437,43.818,-80.437C43.818,-80.437,43.818,13.847,43.818,13.847C43.818,13.847,63.028,13.847,63.028,13.847C63.028,13.847,63.028,41.996,63.028,41.996C63.028,41.996,43.818,41.996,43.818,41.996C43.818,41.996,43.818,80.437,43.818,80.437C43.818,80.437,8.293,80.437,8.293,80.437ZM8.293,13.847C8.293,13.847,8.293,-21.723,8.293,-21.723C8.293,-31.383,8.807,-41.345,9.364,-51.708C9.364,-51.708,8.462,-51.747,8.462,-51.747C3.316,-41.249,-1.017,-31.95,-6.464,-21.888C-6.464,-21.888,-27.903,13.353,-27.903,13.353C-27.903,13.353,-28.05,13.847,-28.05,13.847C-28.05,13.847,8.293,13.847,8.293,13.847Z"/></g><g id="i3" transform="matrix(1,0,0,1,200.54,83.409)"><path fill="#1d1c26" fill-rule="evenodd" d="M60.633,-0.666C60.633,48.9,40.516,83.159,-0.491,83.159C-42.105,83.159,-60.477,45.859,-60.633,0.351C-60.633,-46.386,-41.019,-83.159,0.587,-83.159C43.599,-83.159,60.633,-44.776,60.633,-0.666ZM-22.972,0.196C-23.07,37.224,-14.119,54.743,0.275,54.743C14.93,54.743,22.971,36.363,22.971,-0.197C22.971,-35.857,15.184,-54.597,0.195,-54.597C-13.648,-54.597,-23.021,-37.245,-22.972,0.196Z"/></g><g id="i4" transform="matrix(1,0,0,1,338.002,83.408)"><path fill="#1d1c26" fill-rule="evenodd" d="M8.293,80.437C8.293,80.437,8.293,41.996,8.293,41.996C8.293,41.996,-63.028,41.996,-63.028,41.996C-63.028,41.996,-63.028,17.584,-63.028,17.584C-63.028,17.584,-2.248,-80.437,-2.248,-80.437C-2.248,-80.437,43.818,-80.437,43.818,-80.437C43.818,-80.437,43.818,13.847,43.818,13.847C43.818,13.847,63.028,13.847,63.028,13.847C63.028,13.847,63.028,41.996,63.028,41.996C63.028,41.996,43.818,41.996,43.818,41.996C43.818,41.996,43.818,80.437,43.818,80.437C43.818,80.437,8.293,80.437,8.293,80.437ZM8.293,13.847C8.293,13.847,8.293,-21.723,8.293,-21.723C8.293,-31.383,8.807,-41.345,9.364,-51.708C9.364,-51.708,8.462,-51.747,8.462,-51.747C3.316,-41.249,-1.017,-31.95,-6.464,-21.888C-6.464,-21.888,-27.903,13.353,-27.903,13.353C-27.903,13.353,-28.05,13.847,-28.05,13.847C-28.05,13.847,8.293,13.847,8.293,13.847Z"/></g></g><g id="i6"><g transform="translate(556.97,465.702)"><g transform="rotate(0)"><animateTransform repeatCount="indefinite" type="rotate" attributeName="transform" dur="2.125s" begin="0s" calcMode="spline" values="0; -5; 0; 0" keyTimes="0; 0.470588; 0.941176; 1" keySplines="0.333 0 0.496 1; 0.5 0 0.667 1; 0 0 1 1" fill="freeze"/><g transform="scale(1.151,1.151) translate(-97.592,-157.757)"><g id="i5"><g transform="translate(207.535,45.022)"><g transform="rotate(0)"><animateTransform repeatCount="indefinite" type="rotate" attributeName="transform" dur="2.125s" begin="0s" calcMode="spline" values="0; 0; -55; 0; 0" keyTimes="0; 0.019608; 0.490196; 0.960784; 1" keySplines="0 0 1 1; 0.333 0 0.397 1; 0.604 0 0.667 1; 0 0 1 1" fill="freeze"/><g transform="scale(1,1) translate(-15.952,-15.952)"><g id="i4" transform="matrix(1,0,0,1,15.952,15.952)"><path fill="#7ccf00" d="M15.702,0C15.702,8.672,8.672,15.702,0,15.702C-8.672,15.702,-15.702,8.672,-15.702,0C-15.702,-8.672,-8.672,-15.702,0,-15.702C8.672,-15.702,15.702,-8.672,15.702,0Z"/></g></g></g></g></g></g></g></g></g><g id="i6"><g transform="translate(556.97,465.702)"><g transform="rotate(0)"><animateTransform repeatCount="indefinite" type="rotate" attributeName="transform" dur="2.125s" begin="0s" calcMode="spline" values="0; -5; 0; 0" keyTimes="0; 0.470588; 0.941176; 1" keySplines="0.333 0 0.496 1; 0.5 0 0.667 1; 0 0 1 1" fill="freeze"/><g transform="scale(1.151,1.151) translate(-97.592,-157.757)"><g id="i5"><g transform="translate(207.535,45.022)"><g transform="rotate(0)"><animateTransform repeatCount="indefinite" type="rotate" attributeName="transform" dur="2.125s" begin="0s" calcMode="spline" values="0; 0; -55; 0; 0" keyTimes="0; 0.019608; 0.490196; 0.960784; 1" keySplines="0 0 1 1; 0.333 0 0.397 1; 0.604 0 0.667 1; 0 0 1 1" fill="freeze"/><g transform="scale(1,1) translate(-15.952,-15.952)"><g transform="matrix(1,0,0,1,8.377,7.129)" id="i9"><g id="i4" transform="matrix(1,0,0,1,4.991,27.363)"><path stroke-miterlimit="10" stroke-width="5" stroke="#7ccf00" d="M-2.491,24.863C-2.491,24.863,2.491,-24.863,2.491,-24.863"/></g></g></g></g></g></g></g></g></g></g><g id="i6"><g transform="translate(556.97,465.702)"><g transform="rotate(0)"><animateTransform repeatCount="indefinite" type="rotate" attributeName="transform" dur="2.125s" begin="0s" calcMode="spline" values="0; -5; 0; 0" keyTimes="0; 0.470588; 0.941176; 1" keySplines="0.333 0 0.496 1; 0.5 0 0.667 1; 0 0 1 1" fill="freeze"/><g transform="scale(1.151,1.151) translate(-97.592,-157.757)"><g id="i5"><g transform="translate(207.535,45.022)"><g transform="rotate(0)"><animateTransform repeatCount="indefinite" type="rotate" attributeName="transform" dur="2.125s" begin="0s" calcMode="spline" values="0; 0; -55; 0; 0" keyTimes="0; 0.019608; 0.490196; 0.960784; 1" keySplines="0 0 1 1; 0.333 0 0.397 1; 0.604 0 0.667 1; 0 0 1 1" fill="freeze"/><g transform="scale(1,1) translate(-15.952,-15.952)"><g transform="matrix(1,0,0,1,-28.6,41.399)" id="i9"><g id="i4" transform="matrix(1,0,0,1,38.679,22.649)"><path stroke-miterlimit="10" stroke-width="5" stroke="#413f56" d="M-24.647,4.404C-24.647,4.404,23.225,10.149,23.225,10.149C23.225,10.149,26.179,-3.694,1.778,-6.702C-26.179,-10.149,-24.647,4.404,-24.647,4.404Z"/></g></g></g></g></g></g></g></g></g></g><g id="i6"><g transform="translate(556.97,465.702)"><g transform="rotate(0)"><animateTransform repeatCount="indefinite" type="rotate" attributeName="transform" dur="2.125s" begin="0s" calcMode="spline" values="0; -5; 0; 0" keyTimes="0; 0.470588; 0.941176; 1" keySplines="0.333 0 0.496 1; 0.5 0 0.667 1; 0 0 1 1" fill="freeze"/><g transform="scale(1.151,1.151) translate(-97.592,-157.757)"><g id="i5"><g transform="translate(207.535,45.022)"><g transform="rotate(0)"><animateTransform repeatCount="indefinite" type="rotate" attributeName="transform" dur="2.125s" begin="0s" calcMode="spline" values="0; 0; -55; 0; 0" keyTimes="0; 0.019608; 0.490196; 0.960784; 1" keySplines="0 0 1 1; 0.333 0 0.397 1; 0.604 0 0.667 1; 0 0 1 1" fill="freeze"/><g transform="scale(1,1) translate(-15.952,-15.952)"><g transform="matrix(1,0,0,1,-28.6,41.399)" id="i9"><g transform="matrix(1,0,0,1,-31.394,27.081)" id="i9"><g transform="matrix(0.869,0,0,0.869,177.131,220.277)" opacity="0.3" id="i10"><g id="i11"><path fill="#c2f07d" d="M-190,-152.5C-190,-152.5,-562.092,1050.118,-562.092,1050.118C-562.092,1050.118,-30.092,1064.117,-30.092,1064.117C-30.092,1064.117,-80.5,-141.5,-80.5,-141.5C-80.5,-141.5,-190,-152.5,-190,-152.5Z"/></g></g></g></g></g></g></g></g></g></g></g></g><g display="none" transform="matrix(1.151,0,0,1.151,703.659,572.634)" style="mix-blend-mode: hard-light" id="i12"><g id="i2" transform="matrix(1,0,0,1,63.278,83.408)"><path fill="#ffffff" fill-rule="evenodd" d="M8.293,80.437C8.293,80.437,8.293,41.996,8.293,41.996C8.293,41.996,-63.028,41.996,-63.028,41.996C-63.028,41.996,-63.028,17.584,-63.028,17.584C-63.028,17.584,-2.248,-80.437,-2.248,-80.437C-2.248,-80.437,43.818,-80.437,43.818,-80.437C43.818,-80.437,43.818,13.847,43.818,13.847C43.818,13.847,63.028,13.847,63.028,13.847C63.028,13.847,63.028,41.996,63.028,41.996C63.028,41.996,43.818,41.996,43.818,41.996C43.818,41.996,43.818,80.437,43.818,80.437C43.818,80.437,8.293,80.437,8.293,80.437ZM8.293,13.847C8.293,13.847,8.293,-21.723,8.293,-21.723C8.293,-31.383,8.807,-41.345,9.364,-51.708C9.364,-51.708,8.462,-51.747,8.462,-51.747C3.316,-41.249,-1.017,-31.95,-6.464,-21.888C-6.464,-21.888,-27.903,13.353,-27.903,13.353C-27.903,13.353,-28.05,13.847,-28.05,13.847C-28.05,13.847,8.293,13.847,8.293,13.847Z"/></g><g id="i3" transform="matrix(1,0,0,1,200.54,83.409)"><path fill="#ffffff" fill-rule="evenodd" d="M60.633,-0.666C60.633,48.9,40.516,83.159,-0.491,83.159C-42.105,83.159,-60.477,45.859,-60.633,0.351C-60.633,-46.386,-41.019,-83.159,0.587,-83.159C43.599,-83.159,60.633,-44.776,60.633,-0.666ZM-22.972,0.196C-23.07,37.224,-14.119,54.743,0.275,54.743C14.93,54.743,22.971,36.363,22.971,-0.197C22.971,-35.857,15.184,-54.597,0.195,-54.597C-13.648,-54.597,-23.021,-37.245,-22.972,0.196Z"/></g><g id="i4" transform="matrix(1,0,0,1,338.002,83.408)"><path fill="#ffffff" fill-rule="evenodd" d="M8.293,80.437C8.293,80.437,8.293,41.996,8.293,41.996C8.293,41.996,-63.028,41.996,-63.028,41.996C-63.028,41.996,-63.028,17.584,-63.028,17.584C-63.028,17.584,-2.248,-80.437,-2.248,-80.437C-2.248,-80.437,43.818,-80.437,43.818,-80.437C43.818,-80.437,43.818,13.847,43.818,13.847C43.818,13.847,63.028,13.847,63.028,13.847C63.028,13.847,63.028,41.996,63.028,41.996C63.028,41.996,43.818,41.996,43.818,41.996C43.818,41.996,43.818,80.437,43.818,80.437C43.818,80.437,8.293,80.437,8.293,80.437ZM8.293,13.847C8.293,13.847,8.293,-21.723,8.293,-21.723C8.293,-31.383,8.807,-41.345,9.364,-51.708C9.364,-51.708,8.462,-51.747,8.462,-51.747C3.316,-41.249,-1.017,-31.95,-6.464,-21.888C-6.464,-21.888,-27.903,13.353,-27.903,13.353C-27.903,13.353,-28.05,13.847,-28.05,13.847C-28.05,13.847,8.293,13.847,8.293,13.847Z"/></g></g><g mask="url(#i1)" id="i6"><g transform="translate(556.97,465.702)"><g transform="rotate(0)"><animateTransform repeatCount="indefinite" type="rotate" attributeName="transform" dur="2.125s" begin="0s" calcMode="spline" values="0; -5; 0; 0" keyTimes="0; 0.470588; 0.941176; 1" keySplines="0.333 0 0.496 1; 0.5 0 0.667 1; 0 0 1 1" fill="freeze"/><g transform="scale(1.151,1.151) translate(-97.592,-157.757)"><g id="i5"><g transform="translate(207.535,45.022)"><g transform="rotate(0)"><animateTransform repeatCount="indefinite" type="rotate" attributeName="transform" dur="2.125s" begin="0s" calcMode="spline" values="0; 0; -55; 0; 0" keyTimes="0; 0.019608; 0.490196; 0.960784; 1" keySplines="0 0 1 1; 0.333 0 0.397 1; 0.604 0 0.667 1; 0 0 1 1" fill="freeze"/><g transform="scale(1,1) translate(-15.952,-15.952)"><g transform="matrix(1,0,0,1,-28.6,41.399)" id="i9"><g transform="matrix(1,0,0,1,-31.394,27.081)" id="i9"><g transform="matrix(0.869,0,0,0.869,177.131,220.277)" id="i10"><g transform="matrix(1,0,0,1,0,0)" id="i13"><g id="i11" transform="matrix(1,0,0,1,-2.843,0.049)"><path d="M-190,-152.5C-190,-152.5,-562.092,1050.118,-562.092,1050.118C-562.092,1050.118,-30.092,1064.117,-30.092,1064.117C-30.092,1064.117,-80.5,-141.5,-80.5,-141.5C-80.5,-141.5,-190,-152.5,-190,-152.5Z"/></g></g></g></g></g></g></g></g></g></g></g></g></g><g id="i6"><g transform="translate(556.97,465.702)"><g transform="rotate(0)"><animateTransform repeatCount="indefinite" type="rotate" attributeName="transform" dur="2.125s" begin="0s" calcMode="spline" values="0; -5; 0; 0" keyTimes="0; 0.470588; 0.941176; 1" keySplines="0.333 0 0.496 1; 0.5 0 0.667 1; 0 0 1 1" fill="freeze"/><g transform="scale(1.151,1.151) translate(-97.592,-157.757)"><g id="i5"><g transform="translate(207.535,45.022)"><g transform="rotate(0)"><animateTransform repeatCount="indefinite" type="rotate" attributeName="transform" dur="2.125s" begin="0s" calcMode="spline" values="0; 0; -55; 0; 0" keyTimes="0; 0.019608; 0.490196; 0.960784; 1" keySplines="0 0 1 1; 0.333 0 0.397 1; 0.604 0 0.667 1; 0 0 1 1" fill="freeze"/><g transform="scale(1,1) translate(-15.952,-15.952)"><g transform="matrix(1,0,0,1,-28.6,41.399)" id="i9"><g transform="matrix(1,0,0,1,-31.394,27.081)" id="i9"><g id="i3" transform="matrix(1,0,0,1,59.8,55.555)"><path stroke-miterlimit="10" stroke-width="5" stroke="#413f56" d="M47.3,43.055C47.3,43.055,11.31,38.825,11.31,38.825C11.31,38.825,-18.74,35.295,-18.74,35.295C-18.74,35.295,-47.3,31.945,-47.3,31.945C-47.3,31.945,-15.77,-43.055,-15.77,-43.055C-15.77,-43.055,34.36,-37.205,34.36,-37.205C34.36,-37.205,47.3,43.055,47.3,43.055Z"/></g><g id="i4" transform="matrix(1,0,0,1,56.085,96.835)"><path stroke-miterlimit="10" stroke-width="5" stroke="#413f56" d="M15.025,-2.455C12.245,2.575,6.875,5.985,0.715,5.985C-6.795,5.985,-13.115,0.925,-15.025,-5.985C-15.025,-5.985,15.025,-2.455,15.025,-2.455Z"/></g></g></g></g></g></g></g></g></g></g></g></g></svg>